<svg id="Capa_1" enable-background="new 0 0 512 512" height="512" viewBox="0 0 512 512" width="512" xmlns="http://www.w3.org/2000/svg"><g><path d="m425.946 214.114h31.88v12.319h-31.88z" fill="#589cfb"/><path d="m322.666 359.162c-15.73 0-118.568 0-133.332 0-98.75 26.631-189.334 41.475-189.334 147.838h512c0-106.406-90.83-121.275-189.334-147.838z" fill="#84d9f3"/><path d="m512 507c0-106.406-90.83-121.275-189.334-147.838-7.833 0-37.267 0-66.668 0v147.838z" fill="#77b0fb"/><path d="m117.909 217.361h-63.735v-84.943h63.735c0 7.814 10.622 23.541 10.622 39.764 0 17.66-10.622 35.908-10.622 45.179z" fill="#dc4c67"/><path d="m321.273 372.598c0 35.963-29.222 65.109-65.273 65.109-36.054 0-65.276-29.146-65.276-65.109 0-7.826 0-30.426 0-38.842 14.241 7.629 116.317 7.627 130.55 0-.001.523-.001 39.398-.001 38.842z" fill="#d6a279"/><path d="m321.273 372.598c0-4.3 0-34.224 0-38.85-19.46 10.428-41.694 5.721-65.273 5.721v98.238c36.052 0 65.273-29.146 65.273-65.109z" fill="#c59268"/><path d="m394.092 132.418c0 12.182-10.623 26.348-10.623 39.764 0 10.145 3.948 16.143 7.031 21.347v23.833h67.326c0-15.661 0-63.556 0-84.943h-63.734z" fill="#c11f74"/><path d="m256 351.148c-76.334 0-138.091-61.721-138.091-137.727 0-18.621 0-138.272 0-153.441 0 39.838 38.07 56.809 77.543 56.809l198.64 7.787v88.846c0 76.338-62.084 137.726-138.092 137.726z" fill="#ebcea5"/><path d="m394.092 213.422c0-16.469 0-66.629 0-93.918l-138.092-.236v231.881c77.197-.001 138.092-62.745 138.092-137.727z" fill="#e7b889"/><path d="m425.946 262.285c-21.507 0-153.876 0-169.859 0v31.855h201.727v-71.779c-8.583 0-26.525 0-31.867 0v39.924z" fill="#589cfb"/><path d="m190.724 358.826h-.137c-.419.113-.836.225-1.253.336h1.39c0-.183 0-.316 0-.336z" fill="#60a8e5"/><path d="m321.413 358.826h-.14v.336h1.393c-.419-.111-.836-.222-1.253-.336z" fill="#60a8e5"/><path d="m394.092 77.436v54.982h-204.44c-39.473 0-71.742-32.6-71.742-72.438 0-9.336 0-48.025 0-54.98h22.434l88.198 38.033v-38.033h93.806c39.471 0 71.744 32.607 71.744 72.436z" fill="#2b4c9f"/><path d="m394.092 77.436c0-39.829-32.273-72.436-71.745-72.436h-66.347v127.418h138.092c0-7.929 0-47.827 0-54.982z" fill="#213b82"/></g></svg>